<svg xmlns="http://www.w3.org/2000/svg">
	<symbol id="icon-arrow-left" fill="none" >
		<path d="M19 12H5" stroke="currentColor" stroke-width="2" stroke-linecap="round" stroke-linejoin="round"/>
		<path d="M12 19L5 12L12 5" stroke="currentColor" stroke-width="2" stroke-linecap="round" stroke-linejoin="round"/>
	</symbol>
	
	<symbol id="icon-arrow-right" fill="none" >
		<path d="M5 12H19" stroke="currentColor" stroke-width="2" stroke-linecap="round" stroke-linejoin="round"/>
		<path d="M12 19L19 12L12 5" stroke="currentColor" stroke-width="2" stroke-linecap="round" stroke-linejoin="round"/>
	</symbol>
	
	<symbol id="icon-bar-chart" fill="none" >
		<path d="M18 20V10" stroke="currentColor" stroke-width="2" stroke-linecap="round" stroke-linejoin="round"/>
		<path d="M12 20V4" stroke="currentColor" stroke-width="2" stroke-linecap="round" stroke-linejoin="round"/>
		<path d="M6 20V14" stroke="currentColor" stroke-width="2" stroke-linecap="round" stroke-linejoin="round"/>
	</symbol>
	
	<symbol id="icon-cart" fill="none" >
		<path d="M9 22C9.55228 22 10 21.5523 10 21C10 20.4477 9.55228 20 9 20C8.44772 20 8 20.4477 8 21C8 21.5523 8.44772 22 9 22Z" stroke="currentColor" stroke-width="2" stroke-linecap="round" stroke-linejoin="round"/>
		<path d="M20 22C20.5523 22 21 21.5523 21 21C21 20.4477 20.5523 20 20 20C19.4477 20 19 20.4477 19 21C19 21.5523 19.4477 22 20 22Z" stroke="currentColor" stroke-width="2" stroke-linecap="round" stroke-linejoin="round"/>
		<path d="M1 1H5L7.68 14.39C7.77144 14.8504 8.02191 15.264 8.38755 15.5583C8.75318 15.8526 9.2107 16.009 9.68 16H19.4C19.8693 16.009 20.3268 15.8526 20.6925 15.5583C21.0581 15.264 21.3086 14.8504 21.4 14.39L23 6H6" stroke="currentColor" stroke-width="2" stroke-linecap="round" stroke-linejoin="round"/>
	</symbol>

	<symbol id="icon-chevron-down" fill="none" >
		<path d="M6 9L12 15L18 9" stroke="currentColor" stroke-width="2" stroke-linecap="round" stroke-linejoin="round"/>
	</symbol>

	<symbol id="icon-copy" fill="none" >
		<path d="M20 9H11C9.89543 9 9 9.89543 9 11V20C9 21.1046 9.89543 22 11 22H20C21.1046 22 22 21.1046 22 20V11C22 9.89543 21.1046 9 20 9Z" stroke="currentColor" stroke-width="2" stroke-linecap="round" stroke-linejoin="round"/>
		<path d="M5 15H4C3.46957 15 2.96086 14.7893 2.58579 14.4142C2.21071 14.0391 2 13.5304 2 13V4C2 3.46957 2.21071 2.96086 2.58579 2.58579C2.96086 2.21071 3.46957 2 4 2H13C13.5304 2 14.0391 2.21071 14.4142 2.58579C14.7893 2.96086 15 3.46957 15 4V5" stroke="#1C7ED6" stroke-width="2" stroke-linecap="round" stroke-linejoin="round"/>
	</symbol>

	<symbol id="icon-catalog" fill="none" >
		<path d="M10 3H3V10H10V3Z" stroke="currentColor" stroke-width="2" stroke-linecap="round" stroke-linejoin="round"/>
		<path d="M21 3H14V10H21V3Z" stroke="currentColor" stroke-width="2" stroke-linecap="round" stroke-linejoin="round"/>
		<path d="M21 14H14V21H21V14Z" stroke="currentColor" stroke-width="2" stroke-linecap="round" stroke-linejoin="round"/>
		<path d="M10 14H3V21H10V14Z" stroke="currentColor" stroke-width="2" stroke-linecap="round" stroke-linejoin="round"/>
	</symbol>

	<symbol id="icon-mail" fill="none" >
		<path d="M4 4H20C21.1 4 22 4.9 22 6V18C22 19.1 21.1 20 20 20H4C2.9 20 2 19.1 2 18V6C2 4.9 2.9 4 4 4Z" stroke="currentColor" stroke-width="2" stroke-linecap="round" stroke-linejoin="round"/>
		<path d="M22 6L12 13L2 6" stroke="currentColor" stroke-width="2" stroke-linecap="round" stroke-linejoin="round"/>
	</symbol>

	<symbol id="icon-menu" fill="none" >
		<path d="M3 12H21" stroke="currentColor" stroke-width="2" stroke-linecap="round" stroke-linejoin="round"/>
		<path d="M3 6H21" stroke="currentColor" stroke-width="2" stroke-linecap="round" stroke-linejoin="round"/>
		<path d="M3 18H21" stroke="currentColor" stroke-width="2" stroke-linecap="round" stroke-linejoin="round"/>
	</symbol>

	<symbol id="icon-phone" fill="none" >
		<path d="M21.9999 16.9201V19.9201C22.0011 20.1986 21.944 20.4743 21.8324 20.7294C21.7209 20.9846 21.5572 21.2137 21.352 21.402C21.1468 21.5902 20.9045 21.7336 20.6407 21.8228C20.3769 21.912 20.0973 21.9452 19.8199 21.9201C16.7428 21.5857 13.7869 20.5342 11.1899 18.8501C8.77376 17.3148 6.72527 15.2663 5.18993 12.8501C3.49991 10.2413 2.44818 7.27109 2.11993 4.1801C2.09494 3.90356 2.12781 3.62486 2.21643 3.36172C2.30506 3.09859 2.4475 2.85679 2.6347 2.65172C2.82189 2.44665 3.04974 2.28281 3.30372 2.17062C3.55771 2.05843 3.83227 2.00036 4.10993 2.0001H7.10993C7.59524 1.99532 8.06572 2.16718 8.43369 2.48363C8.80166 2.80008 9.04201 3.23954 9.10993 3.7201C9.23656 4.68016 9.47138 5.62282 9.80993 6.5301C9.94448 6.88802 9.9736 7.27701 9.89384 7.65098C9.81408 8.02494 9.6288 8.36821 9.35993 8.6401L8.08993 9.9101C9.51349 12.4136 11.5864 14.4865 14.0899 15.9101L15.3599 14.6401C15.6318 14.3712 15.9751 14.1859 16.3491 14.1062C16.723 14.0264 17.112 14.0556 17.4699 14.1901C18.3772 14.5286 19.3199 14.7635 20.2799 14.8901C20.7657 14.9586 21.2093 15.2033 21.5265 15.5776C21.8436 15.9519 22.0121 16.4297 21.9999 16.9201Z" stroke="currentColor" stroke-width="2" stroke-linecap="round" stroke-linejoin="round"/>
	</symbol>

	<symbol id="icon-pin" fill="none" >
		<path d="M21 10C21 17 12 23 12 23C12 23 3 17 3 10C3 7.61305 3.94821 5.32387 5.63604 3.63604C7.32387 1.94821 9.61305 1 12 1C14.3869 1 16.6761 1.94821 18.364 3.63604C20.0518 5.32387 21 7.61305 21 10Z" stroke="currentColor" stroke-width="2" stroke-linecap="round" stroke-linejoin="round"/>
		<path d="M12 13C13.6569 13 15 11.6569 15 10C15 8.34315 13.6569 7 12 7C10.3431 7 9 8.34315 9 10C9 11.6569 10.3431 13 12 13Z" stroke="currentColor" stroke-width="2" stroke-linecap="round" stroke-linejoin="round"/>
	</symbol>

	<symbol id="icon-search" fill="none" >
		<path d="M11 19C15.4183 19 19 15.4183 19 11C19 6.58172 15.4183 3 11 3C6.58172 3 3 6.58172 3 11C3 15.4183 6.58172 19 11 19Z" stroke="currentColor" stroke-width="2" stroke-linecap="round" stroke-linejoin="round"/>
		<path d="M20.9999 20.9999L16.6499 16.6499" stroke="currentColor" stroke-width="2" stroke-linecap="round" stroke-linejoin="round"/>
	</symbol>

	<symbol id="icon-user" fill="none" >
		<path d="M20 21V19C20 17.9391 19.5786 16.9217 18.8284 16.1716C18.0783 15.4214 17.0609 15 16 15H8C6.93913 15 5.92172 15.4214 5.17157 16.1716C4.42143 16.9217 4 17.9391 4 19V21" stroke="currentColor" stroke-width="2" stroke-linecap="round" stroke-linejoin="round"/>
		<path d="M12 11C14.2091 11 16 9.20914 16 7C16 4.79086 14.2091 3 12 3C9.79086 3 8 4.79086 8 7C8 9.20914 9.79086 11 12 11Z" stroke="currentColor" stroke-width="2" stroke-linecap="round" stroke-linejoin="round"/>
	</symbol>

	<symbol id="icon-vk" fill="none" >
		<path d="M20.7999 7.74C20.9299 7.32 20.8 7 20.18 7H18.16C17.64 7 17.41 7.27 17.28 7.57C17.28 7.57 16.25 10.08 14.79 11.72C14.31 12.19 14.1 12.34 13.84 12.34C13.71 12.34 13.5 12.19 13.5 11.76V7.74C13.5 7.23 13.38 7 12.95 7H9.75995C9.43995 7 9.24995 7.24 9.24995 7.47C9.24995 7.95 9.99995 8.07 10.05 9.44V12.42C10.05 13.08 9.92995 13.2 9.67995 13.2C8.99995 13.2 7.31995 10.67 6.32995 7.79C6.12995 7.23 5.93995 7 5.41995 7H3.38995C2.81995 7 2.69995 7.27 2.69995 7.57C2.69995 8.11 3.38995 10.77 5.89995 14.29C7.56995 16.7 9.92995 18 12.08 18C13.37 18 13.53 17.71 13.53 17.21V15.39C13.53 14.82 13.65 14.7 14.06 14.7C14.36 14.7 14.87 14.85 16.07 16C17.45 17.38 17.67 18 18.45 18H20.4699C21.0499 18 21.34 17.71 21.18 17.14C21 16.57 20.34 15.74 19.4699 14.76C19 14.21 18.29 13.61 18.07 13.3C17.77 12.92 17.86 12.75 18.07 12.4C18.07 12.4 20.5399 8.93 20.7999 7.74Z" fill="currentColor"/>
	</symbol>

	<symbol id="icon-close" fill="none" >
		<path d="M12 22C17.5228 22 22 17.5228 22 12C22 6.47715 17.5228 2 12 2C6.47715 2 2 6.47715 2 12C2 17.5228 6.47715 22 12 22Z" stroke="currentColor" stroke-width="2" stroke-linecap="round" stroke-linejoin="round"/>
		<path d="M15 9L9 15" stroke="currentColor" stroke-width="2" stroke-linecap="round" stroke-linejoin="round"/>
		<path d="M9 9L15 15" stroke="currentColor" stroke-width="2" stroke-linecap="round" stroke-linejoin="round"/>
	</symbol>

	<symbol id="icon-chat">
		<path fill-rule="evenodd" clip-rule="evenodd" d="M12 3C7.85113 3 4 5.73396 4 10C4 11.5704 4.38842 12.7289 5.08252 13.6554C5.79003 14.5998 6.87746 15.3863 8.41627 16.0908L9.2326 16.4645L8.94868 17.3162C8.54129 18.5384 7.84997 19.6611 7.15156 20.5844C9.56467 19.8263 12.7167 18.6537 14.9453 17.1679C17.1551 15.6948 18.3969 14.5353 19.0991 13.455C19.7758 12.4139 20 11.371 20 10C20 5.73396 16.1489 3 12 3ZM2 10C2 4.26604 7.14887 1 12 1C16.8511 1 22 4.26604 22 10C22 11.629 21.7242 13.0861 20.7759 14.545C19.8531 15.9647 18.3449 17.3052 16.0547 18.8321C13.0781 20.8164 8.76589 22.2232 6.29772 22.9281C5.48665 23.1597 4.84055 22.6838 4.56243 22.1881C4.28848 21.6998 4.22087 20.9454 4.74413 20.3614C5.44439 19.5798 6.21203 18.5732 6.72616 17.4871C5.40034 16.7841 4.29326 15.9376 3.48189 14.8545C2.48785 13.5277 2 11.9296 2 10Z" fill="currentColor"/>
		<path d="M9 10C9 10.8284 8.32843 11.5 7.5 11.5C6.67157 11.5 6 10.8284 6 10C6 9.17157 6.67157 8.5 7.5 8.5C8.32843 8.5 9 9.17157 9 10Z" fill="currentColor"/>
		<path d="M13.4976 10C13.4976 10.8284 12.826 11.5 11.9976 11.5C11.1692 11.5 10.4976 10.8284 10.4976 10C10.4976 9.17157 11.1692 8.5 11.9976 8.5C12.826 8.5 13.4976 9.17157 13.4976 10Z" fill="currentColor"/>
		<path d="M16.5 11.5C17.3284 11.5 18 10.8284 18 10C18 9.17157 17.3284 8.5 16.5 8.5C15.6716 8.5 15 9.17157 15 10C15 10.8284 15.6716 11.5 16.5 11.5Z" fill="currentColor"/>
	</symbol>

	<symbol id="icon-spanner" fill="none" xml:space="preserve">
		<g>
			<path fill="currentColor" d="M358.044,264.433c-31.212-50.796-89.964-82.007-137.699-115.667c20.195-73.44-36.108-177.48-118.116-141.372
				c-3.672,1.836-4.896,4.896-3.672,7.956c0,1.836,0,4.284,1.836,6.732c12.852,14.076,26.928,26.316,39.168,41.004
				c18.36,21.42-3.672,49.572-15.912,69.156c-5.508,9.18-4.284,7.344-15.3,7.344c-12.852,0-25.704,2.448-38.556,1.836
				c-21.42-0.612-32.436-37.332-50.184-48.348c-0.612-3.672-6.12-4.896-7.956-1.224c-43.452,85.68,58.14,135.863,134.028,121.787
				c27.54,34.885,53.244,70.38,83.844,102.204c25.704,25.704,66.096,66.097,106.488,55.692
				C382.525,358.681,377.017,295.646,358.044,264.433z M295.008,318.289c-9.792-11.016-7.344-25.092,0-36.108
				c1.225,0.612,2.448,0.612,4.284,0c11.628-4.283,20.196-6.731,28.152,4.896c6.731,9.18,8.568,23.868,1.224,33.048
				C318.876,331.141,303.577,328.081,295.008,318.289z M317.041,356.233c6.732,0,14.076-1.225,20.196-4.284
				C331.729,355.621,324.997,357.457,317.041,356.233z"/>
		</g>
	</symbol>

	<symbol id="icon-pen" fill="none">
		<path d="M11.4001 18.1612L11.4001 18.1612L18.796 10.7653C17.7894 10.3464 16.5972 9.6582 15.4697 8.53068C14.342 7.40298 13.6537 6.21058 13.2348 5.2039L5.83882 12.5999L5.83879 12.5999C5.26166 13.1771 4.97307 13.4657 4.7249 13.7838C4.43213 14.1592 4.18114 14.5653 3.97634 14.995C3.80273 15.3593 3.67368 15.7465 3.41556 16.5208L2.05445 20.6042C1.92743 20.9852 2.0266 21.4053 2.31063 21.6894C2.59466 21.9734 3.01478 22.0726 3.39584 21.9456L7.47918 20.5844C8.25351 20.3263 8.6407 20.1973 9.00498 20.0237C9.43469 19.8189 9.84082 19.5679 10.2162 19.2751C10.5343 19.0269 10.823 18.7383 11.4001 18.1612Z" fill="currentColor"/>
		<path d="M20.8482 8.71306C22.3839 7.17735 22.3839 4.68748 20.8482 3.15178C19.3125 1.61607 16.8226 1.61607 15.2869 3.15178L14.3999 4.03882C14.4121 4.0755 14.4246 4.11268 14.4377 4.15035C14.7628 5.0875 15.3763 6.31601 16.5303 7.47002C17.6843 8.62403 18.9128 9.23749 19.85 9.56262C19.8875 9.57563 19.9245 9.58817 19.961 9.60026L20.8482 8.71306Z" fill="currentColor"/>
	</symbol>

	<symbol id="icon-settings" fill="none">
		<path fill-rule="evenodd" clip-rule="evenodd" d="M14.2788 2.15224C13.9085 2 13.439 2 12.5 2C11.561 2 11.0915 2 10.7212 2.15224C10.2274 2.35523 9.83509 2.74458 9.63056 3.23463C9.53719 3.45834 9.50065 3.7185 9.48635 4.09799C9.46534 4.65568 9.17716 5.17189 8.69017 5.45093C8.20318 5.72996 7.60864 5.71954 7.11149 5.45876C6.77318 5.2813 6.52789 5.18262 6.28599 5.15102C5.75609 5.08178 5.22018 5.22429 4.79616 5.5472C4.47814 5.78938 4.24339 6.1929 3.7739 6.99993C3.30441 7.80697 3.06967 8.21048 3.01735 8.60491C2.94758 9.1308 3.09118 9.66266 3.41655 10.0835C3.56506 10.2756 3.77377 10.437 4.0977 10.639C4.57391 10.936 4.88032 11.4419 4.88029 12C4.88026 12.5581 4.57386 13.0639 4.0977 13.3608C3.77372 13.5629 3.56497 13.7244 3.41645 13.9165C3.09108 14.3373 2.94749 14.8691 3.01725 15.395C3.06957 15.7894 3.30432 16.193 3.7738 17C4.24329 17.807 4.47804 18.2106 4.79606 18.4527C5.22008 18.7756 5.75599 18.9181 6.28589 18.8489C6.52778 18.8173 6.77305 18.7186 7.11133 18.5412C7.60852 18.2804 8.2031 18.27 8.69012 18.549C9.17714 18.8281 9.46533 19.3443 9.48635 19.9021C9.50065 20.2815 9.53719 20.5417 9.63056 20.7654C9.83509 21.2554 10.2274 21.6448 10.7212 21.8478C11.0915 22 11.561 22 12.5 22C13.439 22 13.9085 22 14.2788 21.8478C14.7726 21.6448 15.1649 21.2554 15.3694 20.7654C15.4628 20.5417 15.4994 20.2815 15.5137 19.902C15.5347 19.3443 15.8228 18.8281 16.3098 18.549C16.7968 18.2699 17.3914 18.2804 17.8886 18.5412C18.2269 18.7186 18.4721 18.8172 18.714 18.8488C19.2439 18.9181 19.7798 18.7756 20.2038 18.4527C20.5219 18.2105 20.7566 17.807 21.2261 16.9999C21.6956 16.1929 21.9303 15.7894 21.9827 15.395C22.0524 14.8691 21.9088 14.3372 21.5835 13.9164C21.4349 13.7243 21.2262 13.5628 20.9022 13.3608C20.4261 13.0639 20.1197 12.558 20.1197 11.9999C20.1197 11.4418 20.4261 10.9361 20.9022 10.6392C21.2263 10.4371 21.435 10.2757 21.5836 10.0835C21.9089 9.66273 22.0525 9.13087 21.9828 8.60497C21.9304 8.21055 21.6957 7.80703 21.2262 7C20.7567 6.19297 20.522 5.78945 20.2039 5.54727C19.7799 5.22436 19.244 5.08185 18.7141 5.15109C18.4722 5.18269 18.2269 5.28136 17.8887 5.4588C17.3915 5.71959 16.7969 5.73002 16.3099 5.45096C15.8229 5.17191 15.5347 4.65566 15.5136 4.09794C15.4993 3.71848 15.4628 3.45833 15.3694 3.23463C15.1649 2.74458 14.7726 2.35523 14.2788 2.15224ZM12.5 15C14.1695 15 15.5228 13.6569 15.5228 12C15.5228 10.3431 14.1695 9 12.5 9C10.8305 9 9.47716 10.3431 9.47716 12C9.47716 13.6569 10.8305 15 12.5 15Z" fill="currentColor"/>
	</symbol>

	<symbol id="icon-delivery" xml:space="preserve">
		<g>
			<path fill="currentColor" d="M26,27c-1.7,0-3-1.3-3-3s1.3-3,3-3s3,1.3,3,3S27.7,27,26,27z"/>
		</g>
		<g>
			<path fill="currentColor" d="M10,27c-1.7,0-3-1.3-3-3s1.3-3,3-3s3,1.3,3,3S11.7,27,10,27z"/>
		</g>
			<path fill="currentColor" d="M31.8,17.4l-4-5C27.6,12.1,27.3,12,27,12h-5V9c0-0.6-0.4-1-1-1H5C4.4,8,4,8.4,4,9v1h1c0.6,0,1,0.4,1,1s-0.4,1-1,1H4H3
			c-0.6,0-1,0.4-1,1s0.4,1,1,1h1h2c0.6,0,1,0.4,1,1s-0.4,1-1,1H4H1c-0.6,0-1,0.4-1,1s0.4,1,1,1h3v6c0,0.6,0.4,1,1,1h0.1
			C5,24.7,5,24.3,5,24c0-2.8,2.2-5,5-5s5,2.2,5,5c0,0.3,0,0.7-0.1,1H21h0.1C21,24.7,21,24.3,21,24c0-2.8,2.2-5,5-5s5,2.2,5,5
			c0,0.3,0,0.7-0.1,1H31c0.6,0,1-0.4,1-1v-6C32,17.8,31.9,17.6,31.8,17.4z"/>
		</symbol>
</svg>


  
  

